<?xml version="1.0" encoding="UTF-8"?><svg id="Layer_2" xmlns="http://www.w3.org/2000/svg" viewBox="0 0 24 24"><defs><style>.cls-1,.cls-2{stroke-width:0px;}.cls-2{fill:none;}</style></defs><g id="Layer_1-2"><path class="cls-1" d="m19,5v14H5V5h14m0-2H5c-1.1,0-2,.9-2,2v14c0,1.1.9,2,2,2h14c1.1,0,2-.9,2-2V5c0-1.1-.9-2-2-2h0Z"/><path class="cls-1" d="m12,9c1.65,0,3,1.35,3,3s-1.35,3-3,3-3-1.35-3-3,1.35-3,3-3m0-2c-2.76,0-5,2.24-5,5s2.24,5,5,5,5-2.24,5-5-2.24-5-5-5h0Z"/><path class="cls-1" d="m17,6c-.55,0-1,.45-1,1s.45,1,1,1,1-.45,1-1-.45-1-1-1h0Z"/><rect class="cls-2" width="24" height="24"/></g></svg>