<?xml version="1.0" encoding="UTF-8"?>
<svg id="_레이어_2" data-name="레이어 2" xmlns="http://www.w3.org/2000/svg" viewBox="0 0 290.45 289.16">
  <defs>
    <style>
      .cls-1 {
        fill: #1e407e;
        stroke-width: 0px;
      }
    </style>
  </defs>
  <g id="_레이어_1-2" data-name="레이어 1">
    <g>
      <g>
        <path class="cls-1" d="m28.98,38.95l6.67-5.25,2.25,2.86-1.03.81,2.45,3.12-.11-4.95-2.26-2.86,5.07-4.01,2.26,2.88-1.11.88v5.33s.09.12.09.12c.42-.34.82-.6,1.2-.79.38-.19.76-.32,1.14-.38.38-.06.75-.01,1.09.15.35.16.68.43.98.82l.9,1.15c.15.19.34.34.59.44.24.11.44.09.6-.04l.74-.58,2.34,2.88-2.83,2.23c-1.81,1.44-3.38,1.32-4.69-.35l-1.19-1.5c-.21-.26-.5-.46-.88-.59-.39-.14-.71-.11-.96.09l-1.38,1.09,1.81,2.28,1.03-.82,2.12,2.6.23.28-6.73,5.3-2.3-2.92,1.2-.94-5.83-7.41-1.19.94-2.26-2.86Z"/>
        <path class="cls-1" d="m62.82,25.77c.84,1.39,1.28,2.84,1.33,4.36.05,1.52-.29,2.93-1,4.25-.72,1.31-1.76,2.38-3.11,3.2-1.36.82-2.78,1.24-4.27,1.26-1.5.03-2.9-.33-4.23-1.07-1.32-.75-2.39-1.81-3.24-3.2-.92-1.52-1.41-3.04-1.46-4.57-.06-1.53.28-2.91,1.01-4.17.72-1.25,1.79-2.29,3.2-3.14,1.38-.84,2.8-1.29,4.24-1.36,1.44-.07,2.83.28,4.15,1.04,1.32.76,2.45,1.89,3.37,3.42Zm-4.63,8.72c.22-.14.41-.3.55-.49.14-.19.23-.39.27-.6.04-.21.06-.44.04-.68,0-.24-.05-.47-.14-.73-.08-.24-.16-.49-.27-.74-.11-.25-.23-.5-.35-.73-.14-.24-.27-.47-.4-.7-.13-.23-.27-.44-.39-.64-.08-.11-.12-.21-.17-.26-.03-.07-.1-.17-.18-.32-.14-.21-.27-.43-.41-.67-.13-.24-.29-.47-.46-.71-.18-.24-.36-.46-.54-.67-.18-.21-.38-.4-.6-.55-.22-.15-.45-.27-.68-.36-.21-.08-.46-.11-.72-.07-.26.04-.52.13-.78.28-.23.14-.41.31-.56.49-.14.18-.24.37-.28.58-.05.2-.07.41-.06.64,0,.23.04.45.11.68.07.23.15.46.24.7.09.24.2.47.32.68.12.22.25.44.37.65.11.21.24.41.36.58.08.14.14.25.18.31.03.06.09.14.16.26.11.17.23.36.34.56.11.2.24.39.37.6.14.2.29.4.43.59.14.2.3.38.46.55.17.18.33.33.5.48.17.14.34.25.53.35.18.09.37.15.56.19.18.03.38.03.59,0,.21-.04.41-.13.62-.25Z"/>
        <path class="cls-1" d="m78.26,13.55c-.53.24-.86.53-.98.88-.12.35-.08.75.13,1.23l4.71,10.56-5.73,2.55-8.29-6.58,1.68,3.79c.24.52.51.82.83.93.33.1.75.04,1.29-.2l1.52,3.39-6.02,2.68-1.52-3.39c.29-.13.53-.27.69-.43.16-.16.27-.31.34-.45.07-.14.08-.32.05-.51-.02-.21-.06-.38-.11-.53-.05-.15-.13-.34-.24-.58l-3.04-6.82-1.49.66-1.48-3.32,6.94-3.09,8.8,7.13-1.97-4.43c-.07-.15-.12-.26-.16-.34-.04-.08-.1-.18-.18-.31-.08-.13-.18-.22-.27-.27-.1-.05-.22-.1-.37-.13-.14-.04-.3-.03-.5.02-.21.05-.42.14-.66.25l-1.49-3.34,6.03-2.67,1.48,3.32Z"/>
        <path class="cls-1" d="m95.66,20.84c-.7,1.15-1.87,1.98-3.51,2.47-.96.29-1.9.45-2.81.48-.93.03-1.81-.08-2.64-.33-.85-.24-1.61-.6-2.32-1.09-.7-.5-1.33-1.13-1.87-1.92-.55-.78-.97-1.68-1.28-2.7-.36-1.18-.52-2.32-.49-3.45.04-1.13.27-2.19.68-3.16.42-.98,1.07-1.84,1.96-2.61.88-.75,1.95-1.33,3.21-1.71,1.35-.41,2.54-.45,3.57-.1l.25-.75,3.11-.94,2.05,6.71-2.85.87c-.18-.39-.33-.71-.48-.98-.15-.26-.33-.53-.56-.8-.23-.27-.46-.47-.71-.6-.24-.13-.55-.21-.89-.24-.35-.03-.73.03-1.15.15-.46.14-.85.34-1.16.59-.31.26-.54.56-.68.91-.14.34-.24.7-.28,1.06-.05.37-.05.77,0,1.21.05.44.12.83.21,1.19.08.35.18.74.3,1.16.89,2.91,2.37,4.05,4.45,3.41.5-.15.9-.42,1.19-.82.3-.39.37-.83.21-1.31-.1-.35-.21-.6-.32-.78l-1.58.47-.91-3,6.19-1.88,2.59,8.53-2.73.84-.72-.88Z"/>
        <path class="cls-1" d="m98.31,14.42l3.09-.59c.04.19.06.34.09.44.02.11.06.27.12.48.05.22.11.39.17.52.05.12.13.27.23.44.09.17.19.29.3.38.1.08.24.15.39.2.14.05.3.06.48.02.38-.07.64-.29.75-.66.12-.37.11-.92-.04-1.66l-1.37-7.09-1.56.3-.69-3.59,8.67-1.67.7,3.59-1.5.29,1.57,8.08c.3,1.55.1,2.88-.61,3.99-.71,1.1-1.86,1.81-3.44,2.11-1.34.26-2.38.08-3.14-.54l-.18,1-2.75.54-1.26-6.57Z"/>
        <path class="cls-1" d="m126.51,11.63c.1,1.09-.14,2.09-.69,3.03-.56.93-1.32,1.68-2.29,2.24-.98.55-2.05.89-3.22.99-.75.07-1.43.06-2.06-.03-.62-.09-1.17-.24-1.63-.44-.47-.21-.89-.48-1.26-.82-.37-.34-.69-.71-.93-1.11-.25-.4-.47-.85-.65-1.37-.18-.51-.32-1.02-.42-1.53-.09-.51-.18-1.07-.23-1.67l-.52-5.83-1.66.16-.32-3.63,8.95-.8.32,3.62-1.52.14.62,6.91c.03.33.09.65.18.94.09.29.22.56.38.81.17.24.39.43.66.55.28.13.6.18.96.15.63-.06,1.1-.28,1.43-.67.33-.38.46-.88.41-1.48l-.68-7.56-1.69.15-.32-3.62,6.74-.6.32,3.62-1.58.15.69,7.72Z"/>
        <path class="cls-1" d="m152,4.81c-.59-.04-1.01.06-1.28.32-.27.25-.42.62-.46,1.14l-.75,11.54-6.26-.41-4.27-9.69-.27,4.14c-.04.57.06.96.31,1.21.23.24.64.38,1.23.42l-.25,3.71-6.58-.43.24-3.71c.32.03.58,0,.81-.06.22-.06.39-.14.52-.23.11-.1.21-.24.28-.43.07-.2.12-.37.14-.52.03-.15.05-.36.07-.62l.49-7.46-1.62-.1.24-3.62,7.59.5,4.46,10.41.3-4.84c.02-.16.02-.29.02-.37,0-.08,0-.21,0-.36-.02-.16-.06-.28-.12-.37-.06-.09-.15-.18-.26-.29-.1-.1-.25-.17-.46-.22-.19-.05-.43-.08-.69-.08l.24-3.65,6.58.44-.24,3.64Z"/>
        <path class="cls-1" d="m166.65,16.22c.02.22.03.39.05.5,0,.12.05.23.11.32.05.1.14.15.24.18l.87.17-.69,3.64-8.39-1.58.68-3.65,1.23.23c.21-1.11.08-1.71-.37-1.8l-2.8-.52c-.08-.02-.16,0-.22.06-.06.07-.1.14-.11.21-.02.07-.05.18-.09.32-.03.19-.04.41,0,.68.03.25.11.39.25.42l.86.17-.69,3.64-6.9-1.3.7-3.65c.29.06.56.08.81.07.55-.03.99-.27,1.31-.75.1-.16.31-.56.63-1.24l3.06-6.57-2.16-.41.69-3.59,10.1,1.92.85,12.54Zm-5.98-4.57l-.21-5.39-2.12,4.95,2.33.44Z"/>
        <path class="cls-1" d="m180.7,14.79l.3-3.2-1.05-.31-2.72,9.01,1.62.49-1.07,3.56-8.83-2.67,1.08-3.56,1.62.48,2.73-9.01-1-.3-1.55,2.83-2.78-.84,1.97-6.51,14.42,4.37-1.97,6.5-2.78-.85Z"/>
        <path class="cls-1" d="m194.39,16.71l-1.41-.57-3.54,8.74,1.36.54-1.4,3.44-8.27-3.34,1.39-3.44,1.41.57,3.54-8.73-1.38-.56,1.37-3.38,8.28,3.34-1.36,3.38Z"/>
        <path class="cls-1" d="m208.85,29.29c-.75,1.44-1.75,2.57-3.02,3.41-1.26.83-2.65,1.28-4.14,1.35-1.49.07-2.94-.26-4.34-.99-1.4-.72-2.51-1.73-3.31-2.99-.8-1.27-1.23-2.66-1.27-4.17-.05-1.52.31-3,1.05-4.44.82-1.58,1.87-2.79,3.13-3.63,1.27-.84,2.64-1.28,4.08-1.3,1.45-.03,2.9.34,4.36,1.1,1.43.74,2.56,1.71,3.37,2.91.81,1.2,1.23,2.56,1.29,4.08.04,1.53-.35,3.08-1.17,4.66Zm-9.86.59c.24.12.48.19.71.21.24.02.45,0,.66-.08.21-.07.4-.18.6-.32.19-.14.37-.31.55-.5.17-.2.34-.4.5-.62.17-.22.31-.45.45-.69.13-.24.27-.47.39-.7.12-.23.24-.46.35-.67.05-.12.11-.22.14-.27.04-.07.09-.17.16-.32.11-.23.24-.46.37-.7.14-.24.26-.5.37-.77.11-.28.2-.55.29-.81.08-.26.15-.54.15-.8.02-.27,0-.53-.05-.76-.04-.23-.15-.45-.3-.65-.18-.21-.39-.38-.66-.52-.24-.12-.48-.2-.71-.23-.23-.02-.44,0-.64.06-.2.06-.39.16-.59.28-.19.11-.37.27-.52.45-.16.18-.31.37-.47.57-.16.21-.3.41-.41.63-.13.22-.25.44-.37.64-.12.22-.23.42-.32.61-.07.15-.13.26-.16.32-.03.06-.08.16-.14.28-.09.18-.19.38-.3.58-.11.2-.22.41-.31.63-.1.22-.2.45-.29.67-.09.22-.17.46-.23.69-.07.23-.11.46-.14.67-.04.22-.05.43-.02.64.02.21.05.41.12.58.06.18.17.35.32.51.14.16.31.29.52.4Z"/>
        <path class="cls-1" d="m227.36,36.11c-.49-.34-.91-.46-1.26-.38-.37.08-.69.34-.97.75l-6.55,9.53-5.17-3.55,1.29-10.52-2.35,3.42c-.32.47-.43.87-.37,1.2.08.34.37.66.85.99l-2.1,3.06-5.43-3.74,2.1-3.06c.27.18.51.3.73.36.21.06.4.08.56.06.15-.02.31-.1.46-.23.15-.13.29-.25.39-.37.09-.12.22-.29.36-.5l4.24-6.15-1.33-.92,2.06-2.99,6.26,4.31-1.49,11.23,2.74-4c.1-.13.17-.24.21-.3.05-.07.11-.18.18-.32.07-.14.09-.27.09-.38-.02-.11-.04-.24-.08-.37-.04-.14-.14-.28-.28-.43-.14-.14-.33-.28-.55-.43l2.06-3,5.43,3.74-2.06,3Z"/>
        <path class="cls-1" d="m234.13,53.39c-.1.2-.17.35-.21.46-.05.1-.07.21-.07.33s.03.21.11.27l.67.59-2.46,2.78-6.4-5.65,2.45-2.79.93.82c.75-.85.94-1.42.6-1.73l-2.13-1.88c-.07-.05-.14-.08-.23-.05-.08.02-.15.06-.21.11-.05.05-.13.13-.23.23-.13.15-.25.34-.35.58-.11.23-.11.4,0,.5l.65.58-2.45,2.78-5.27-4.64,2.46-2.78c.23.2.45.35.66.47.49.26,1.01.27,1.52.02.17-.07.56-.32,1.18-.74l5.98-4.09-1.65-1.45,2.41-2.74,7.71,6.8-5.66,11.22Zm-2.82-6.98l2.57-4.75-4.34,3.18,1.78,1.57Z"/>
        <path class="cls-1" d="m240,61.01l1.34,1.45,3.27-1.78,2,2.18-5.41,4.96-8.9-9.7,2.74-2.52.99,1.09,6.95-6.37-1.03-1.12,2.68-2.46,6.07,6.62-2.69,2.46-1.07-1.18-6.94,6.38Z"/>
        <path class="cls-1" d="m256.83,80.32c-.9.61-1.88.91-2.97.89-1.08-.02-2.11-.32-3.08-.89-.96-.58-1.78-1.35-2.45-2.32-.43-.62-.75-1.22-.99-1.81-.24-.58-.37-1.13-.42-1.64-.05-.51-.02-1.01.1-1.5.11-.49.28-.94.51-1.35.22-.41.51-.83.87-1.24.36-.41.72-.78,1.13-1.12.4-.34.84-.68,1.34-1.02l4.82-3.32-.94-1.37,2.99-2.07,5.11,7.39-2.99,2.07-.87-1.26-5.71,3.94c-.27.19-.53.4-.73.62-.21.23-.38.46-.51.73-.13.26-.18.55-.16.85.03.31.14.61.34.91.37.51.79.83,1.29.92.49.09.98-.03,1.49-.37l6.25-4.32-.96-1.39,2.99-2.06,3.84,5.57-2.99,2.07-.91-1.31-6.38,4.41Z"/>
        <path class="cls-1" d="m273.44,94.81c-.27-.51-.58-.83-.93-.93-.36-.1-.76-.03-1.21.21l-10.27,5.33-2.89-5.56,6.08-8.67-3.68,1.91c-.5.26-.79.55-.88.88-.08.34.02.75.27,1.28l-3.29,1.71-3.04-5.84,3.29-1.71c.15.28.3.5.47.66.18.16.33.27.47.32.14.06.31.06.51.02.2-.03.38-.09.53-.14.14-.06.32-.15.56-.27l6.62-3.44-.74-1.44,3.22-1.67,3.5,6.75-6.61,9.2,4.31-2.24c.14-.08.26-.13.33-.17.07-.04.18-.11.3-.21.13-.09.21-.18.26-.29.04-.1.08-.22.11-.37.04-.14.02-.31-.05-.5-.05-.19-.16-.41-.28-.65l3.24-1.68,3.02,5.85-3.23,1.68Z"/>
        <path class="cls-1" d="m277.42,105.2l-.56-1.42-8.76,3.47.53,1.35-3.44,1.37-3.28-8.29,3.46-1.37.56,1.42,8.76-3.46-.54-1.38,3.39-1.35,3.29,8.31-3.4,1.35Z"/>
        <path class="cls-1" d="m273.3,118.08l6.12.13c.42,0,.76-.03,1.04-.11.27-.09.46-.28.54-.57.09-.29.06-.67-.08-1.17l3.5-1.01,2,6.9-3.5,1.02c-.05-.19-.11-.34-.17-.48-.05-.14-.12-.26-.21-.37-.09-.11-.17-.2-.23-.27-.07-.07-.16-.13-.28-.18-.13-.05-.24-.09-.31-.11-.08-.03-.21-.05-.37-.07-.18-.02-.32-.03-.42-.03-.08,0-.25-.02-.49-.02-.23,0-.41-.02-.53-.02l-11.28-.55-1.68-5.8,11.59-7.25-.48-1.64,3.5-1.01,2.48,8.6-3.5,1.01-.34-1.15-6.9,4.18Z"/>
        <path class="cls-1" d="m281.82,135.34l2.94-1.32-.39-2.17-2.87.51.37,2.09-3.59.64-.37-2.09-2.82.5.4,2.24.65.02,2.83.16.5,2.79-6.99,1.23-2.31-13.02,3.66-.65.28,1.6,9.28-1.64-.29-1.61,3.6-.64,2.29,12.92-6.67,1.18-.49-2.73Z"/>
        <path class="cls-1" d="m273.2,149.54c-.11-1.82-.28-4.61-.52-8.36l3.71-.23.1,1.59,9.4-.58-.1-1.6,3.65-.22.65,10.48c.05.85.02,1.6-.11,2.26-.12.66-.34,1.25-.68,1.76-.34.51-.8.91-1.39,1.21-.6.29-1.32.46-2.16.51-1,.07-1.84-.22-2.52-.82-.67-.6-1.17-1.49-1.45-2.66-.17,1.04-.45,1.79-.85,2.26-.39.46-.91.71-1.54.75l-.95.06c-.21.01-.36.04-.48.08-.11.03-.22.11-.32.23-.1.11-.17.29-.19.52-.04.23-.04.54-.02.93l-3.7.23-.17-2.7c-.02-.27-.02-.48-.04-.64,0-.16,0-.36,0-.62s0-.47.03-.64c.02-.16.05-.34.11-.57.05-.22.11-.4.18-.54.08-.14.18-.29.3-.44.13-.16.27-.29.43-.38.18-.09.37-.17.61-.24.23-.07.49-.11.77-.13l2.02-.13c.4-.03.74-.07,1.01-.13.27-.05.53-.16.76-.3.24-.14.4-.35.5-.62.1-.27.14-.61.11-1.02l-.06-1.01-3.46.21.07,1.25-3.7.23Zm9.46-1.27c.02.35.07.67.14.95.08.28.18.55.33.8.15.25.35.43.61.56.26.13.56.18.9.17.54-.03.97-.24,1.27-.61.3-.37.44-.86.4-1.47l-.08-1.25-3.61.22.03.63Z"/>
        <path class="cls-1" d="m289.84,170.18l-5.33-.24.14-3.17c.54-.1,1.03-.36,1.46-.77.43-.41.66-.87.69-1.39.02-.31-.06-.54-.21-.72-.15-.18-.39-.28-.71-.3-.2,0-.39.07-.54.23-.17.16-.3.38-.43.67-.13.29-.24.61-.37.98-.13.37-.27.77-.43,1.17-.17.42-.34.83-.56,1.23-.2.41-.46.79-.77,1.16-.32.37-.68.69-1.08.97-.4.28-.9.5-1.49.65-.59.16-1.24.23-1.96.21-.7-.01-1.39-.16-2.03-.43-.66-.26-1.24-.62-1.74-1.07s-.89-.99-1.17-1.63c-.29-.65-.42-1.33-.39-2.05.04-.74.16-1.37.37-1.84.21-.49.56-.99,1.05-1.51l-.94-.41.14-3.34,5.36.24-.15,3.33c-.51.16-.97.46-1.37.9-.4.44-.62.92-.64,1.42-.02.3.05.57.19.8.15.22.36.35.65.36.24,0,.44-.05.62-.2.18-.14.3-.3.39-.46.08-.17.16-.38.24-.64.14-.4.27-.75.38-1.05.11-.3.25-.63.4-.98.15-.35.3-.65.46-.91.16-.26.34-.53.53-.79.21-.27.43-.5.65-.68.22-.2.48-.37.77-.54.28-.16.59-.29.91-.39.32-.09.68-.16,1.07-.21.4-.04.81-.06,1.27-.04,1.65.07,2.93.53,3.86,1.38.94.85,1.36,2.04,1.3,3.58-.06,1.33-.42,2.39-1.08,3.18.08.04.29.15.61.36l-.13,2.95Z"/>
        <path class="cls-1" d="m284.75,181.99l.2-1.5-9.35-1.22-.18,1.45-3.69-.48,1.14-8.85,3.69.49-.21,1.5,9.36,1.21.18-1.46,3.62.47-1.14,8.86-3.62-.47Z"/>
        <path class="cls-1" d="m278.85,194.99l3.21.05.24-1.07-9.18-2.04-.38,1.65-3.63-.81,2.01-8.99,3.63.8-.37,1.66,9.19,2.04.22-1.01-2.93-1.33.63-2.84,6.64,1.47-3.28,14.71-6.63-1.47.63-2.84Z"/>
        <path class="cls-1" d="m275.89,214.7l.24-.73c.08-.23.12-.44.13-.64,0-.19,0-.35-.03-.49-.04-.14-.11-.31-.24-.5-.14-.19-.25-.34-.35-.46-.11-.12-.27-.3-.52-.57l-2.96-3.23-3.57-1.21-.53,1.54-3.51-1.19,2.89-8.52,3.51,1.19-.52,1.52,3.07,1.04,7.25-2.15.37-1.1,3.45,1.17-2.83,8.34-3.44-1.17.3-.89c-.24.08-.8.23-1.66.45-.87.22-1.42.37-1.66.44.88,1.13,1.49,1.75,1.85,1.88.06.02.11.03.18.03.05,0,.09,0,.14,0,.04-.01.08-.03.11-.05.03-.02.06-.04.09-.09.02-.04.06-.08.08-.11,0-.04.04-.09.07-.16.02-.07.05-.13.05-.17.02-.04.05-.12.08-.21.02-.1.05-.17.08-.22l3.44,1.17-2.12,6.24-3.44-1.17Z"/>
      </g>
      <g>
        <path class="cls-1" d="m131.05,27.07C58.79,27.07,0,85.86,0,158.12s58.79,131.05,131.05,131.05,131.05-58.79,131.05-131.05S203.31,27.07,131.05,27.07ZM35.29,227.36c-14.12-19.48-22.46-43.4-22.46-69.24,0-65.19,53.04-118.23,118.22-118.23s117.84,52.66,118.22,117.53c-12.44-7.73-25.82-13.09-40.68-15.49-6.03-.97-10.71-8.56-14.48-13.8-3.01-4.19-7.76-9.85-11.39-13.52-4.05-4.08-8.08-8.19-12.06-12.35-1.46-1.54-2.64-3.66-3.14-5.7-.78-3.23-.89-6.63-1.23-9.96-.58-5.55-2.62-10.75-6-15.2-3.86-5.06-9.33-10.74-16.06-8.03-3.82,1.75-7.58,3.61-11.47,5.15-1.15.46-2.8.34-3.99-.12-9.22-3.61-17.71-2.69-26.22,2.6-5.68,3.54-12.12,4.29-19.11,2.93-11.89-2.32-20.76,3.07-25.04,14.42-3.19,8.47-17.63,5.55-18.34,15.84-.46,6.55,3.34,11.38,8.39,15.86,1.17-2.66,2.12-4.82,3.07-6.99-.72,10.18-1.58,19.49.27,29.63.46,2.56,7.73,27.2,7.46,27.35,1.65-.94,2.32-1.32,3.67-2.09-.93,5.48-1.52,10.36-2.64,15.12-1.08,4.63-2.69,9.14-4.15,14,1.4-.14,2.8-.27,4.25-.42,0,.38.07.74,0,.79-10.91,6.6-21.56,21.72-25.1,29.91Zm77.12-96.65c-.82-14.08-14.62-31.49-28.12-33.81-5.88-1-11.96.61-16.1,5.78-.88,1.09-1.36,2.72-1.46,4.13-.22,2.86-.07,5.76-.07,9.69-6.17-9.85-6.88-22.53-2.1-27.37,7.55,3.2,10.84,2.56,15.95-4.42,2.13-2.93,4.49-3.7,7.34-2.78,11.69,3.74,22.61,10.62,30.97,19.62,2.26,2.42,4.35,5.03,6.29,7.72,11.5,15.99.91,42.6-30.04,50.73,0,0,18.45-10.45,17.36-29.29Zm-20.86-26.05c-1.54-.38-2.59-.66-3.85-.98-.3,1.08-.6,2.11-.89,3.1-7.76-2.37-10.35-.36-13.91,4.53-2.6-2.99-1.87-6.08,1.81-7.76,8.88-4.06,11.53-4.11,16.83,1.1Zm-24.8-20.59c3.12-4.08,6.64-5.57,12.31-4.58-3.79,2.77-4.63,8.46-12.31,4.58Zm67.92,170c-3.62,9.18-10.08,16.25-19.37,21.23-23.6-3.16-45.01-13.3-62.09-28.27-1.61-7.64-.98-15.15,1.93-22.53,4.08-10.39,11.71-18.07,22.88-23.04,11.24-5.01,22.07-5.55,32.49-1.62,10.41,3.93,18.05,11.34,22.91,22.25,4.89,10.99,5.31,21.66,1.24,31.98Zm13.27,9.98s17.08-54.09-34.29-73.54c0,0,33.08-11.38,60.89.79,0,0-16.08.79-29.78,8.79,0,0,20.34,18.25,18.04,42.74l6.32-1.97s-3.93,13.07-9.11,20.62l-12.05,2.56Zm55.11-12.21c-4.9,3.77-10.1,7.18-15.56,10.16,4.54-8.42,10.86-24.32,8.89-45.19l-6.18,1.35c1.08,14.39-1.32,32.14-13.66,49.1-4.9,2.05-9.96,3.77-15.17,5.15,8.73-10.28,31.99-42.58,20.96-84.43,0,0,5.38,10.34,7.37,25.37l6.04-1.65c-1.18-7.59-3.47-15.76-7.32-24.41,0,0,29.3,28.78,14.65,64.55Zm45.62-81.59c-6.5-1.85-27.21-7.4-41.5-7.4,0,0,26.64,20.91,34.23,37.75-6.46,16.73-16.62,31.63-29.48,43.7,17.87-29.24-26.92-78.79-26.92-78.79-8.86.22-21.19,2.67-29.97,3.89-17.62,2.44-34.97,6.56-52.15,11.17-11.93,3.21-25.22,8.45-36.13,14.28,3.29-1.77,7.86-5.39,11.18-7.55,1.61-1.04,3.3-2.01,5.04-2.92-15.09-23.58-7-54.25-7-54.25-1.27,19.33,12.81,41.77,17.8,49.06,8.18-3.79,15.41-6.87,24.18-9.81,31.92-10.71,51.68-13.62,55.82-21.89,3.86-7.71-15.2-24.61-14.42-22.6.78,2,.14,11.35-9.94,21.7-6.41,6.57-14.1,10.75-18.36,12.03,10.98-10.59,21.33-23.65,14.38-45.27-6.17-13.99-16.8-18.74-28.09-26.44,2.72.64,5.86,1.39,8.99,2.13.15-2.45-.18-5.86-2.41-7.3-2.71-1.76-7.62-1.17-10.45.19-3.97,1.92-6.96.48-9.78-2.2,7.12-10.35,20.36-9.12,37.62,3.97-1.04-3.33-1.85-5.91-2.72-8.66,6.05-7.15,12.02-7.15,18.16.37,4.86,5.95,6.62,12.83,5.77,20.97-2.48-1.17-4.77-2.25-7.45-3.51.29.13,2.71-2.93,2.8-3.28.78-2.89-1.49-5.41-3.54-7.05-2.32-1.85-5.39-2.34-5.37,1.69,0,2.29.61,4.56.99,7.01-1.1.16-2.07.32-3.87.61,10.57,5.72,18.96,13.28,26.46,21.85,7.05,7.44,26.17,32.86,26.16,32.86,17.42,3.03,34.44,7.64,50.41,18.03-.1,1.91-.25,3.8-.44,5.68Z"/>
        <path class="cls-1" d="m118.47,239.77c0-14.36-11.69-26.04-26.04-26.04s-26.05,11.69-26.05,26.04,11.69,26.04,26.05,26.04,26.04-11.68,26.04-26.04Z"/>
      </g>
    </g>
  </g>
</svg>