<?xml version="1.0" encoding="UTF-8"?><svg id="Layer_1" xmlns="http://www.w3.org/2000/svg" viewBox="0 0 24 24"><defs><style>.cls-1{fill:#143fe5;stroke-width:0px;}</style></defs><path class="cls-1" d="m14.19,15.26c.16-.13.32-.25.49-.36.17-.12.34-.23.52-.33.12-.07.24-.14.37-.2.19-.1.39-.19.59-.27.21-.08.42-.16.64-.22.23-.07.46-.12.7-.17.25-.05.51-.08.76-.11.28-.02.55-.04.83-.04h.07v-.9s-.05,0-.08,0c-.25,0-.51.02-.76.04-.21.02-.42.04-.62.07-.17.02-.34.05-.51.08-.1.02-.2.04-.3.06-.06.01-.13.03-.19.05-.07.02-.13.04-.19.05-.14.04-.28.09-.41.14-.15.05-.3.11-.44.18-.07.03-.14.06-.21.1-.07.03-.14.07-.21.1-.21.11-.42.22-.62.35-.1.06-.21.13-.31.2-.12.08-.24.17-.36.25-.23.17-.45.35-.67.53-.21.18-.41.36-.61.55-.15.14-.29.28-.44.42-.3-.3-.6-.6-.92-.88-.16-.14-.32-.28-.48-.42-.17-.14-.33-.27-.51-.39-.18-.13-.36-.25-.54-.36-.13-.08-.26-.15-.39-.22-.2-.11-.41-.21-.62-.3-.22-.09-.45-.18-.68-.25-.24-.07-.49-.14-.74-.19-.27-.05-.54-.09-.81-.12-.29-.03-.59-.04-.88-.04h-.82v7.61h.82c.29,0,.59-.01.88-.04.27-.03.54-.06.81-.12.25-.05.5-.11.74-.19.23-.07.46-.15.68-.25.21-.09.42-.19.62-.3.13-.07.26-.15.39-.22.18-.11.36-.24.54-.36.17-.13.34-.26.51-.39.16-.14.32-.28.48-.42.31-.28.62-.58.92-.88.14.14.29.28.44.42.2.19.4.37.61.55.22.19.44.36.67.53.12.09.24.17.36.25.1.07.2.13.31.2.2.12.41.24.62.35.14.07.28.13.42.2.14.06.29.12.44.18.14.05.27.1.41.14.06.02.13.04.19.05.06.02.13.03.19.05.1.02.2.04.3.06.17.03.34.06.51.08.21.03.42.05.62.07.25.02.51.03.76.04.03,0,.05,0,.08,0v-.9h-.07c-.28,0-.55-.01-.83-.04-.26-.02-.51-.06-.76-.11-.24-.04-.47-.1-.7-.17-.22-.06-.43-.14-.64-.22-.2-.08-.4-.17-.59-.27-.12-.06-.25-.13-.37-.2-.18-.1-.35-.21-.52-.33-.17-.12-.33-.24-.49-.36-.16-.12-.31-.25-.46-.39-.3-.26-.59-.54-.88-.82.29-.28.58-.56.88-.82.15-.13.3-.26.46-.39Zm-3.07,1.67c-.21.2-.42.4-.64.59-.11.09-.22.19-.33.28-.11.09-.22.18-.34.26-.11.08-.23.16-.35.24-.09.06-.17.11-.26.17-.21.13-.43.24-.66.35-.13.06-.27.12-.41.17-.14.05-.29.1-.43.14-.31.09-.63.16-.96.2-.34.05-.68.07-1.02.07v-5.82c.34,0,.68.02,1.02.07.32.04.64.11.96.2.15.04.29.09.43.14.14.05.27.11.41.17.13.06.26.12.38.19.09.05.19.1.28.16.21.13.41.26.61.41.23.17.45.35.66.53.22.19.43.39.64.59.16.15.31.3.47.46-.15.15-.31.31-.47.46Z"/><path class="cls-1" d="m5.73,7v-3.28h-.9v7.64h.9v-3.27c.2.2.41.4.62.59.15.14.3.27.45.4.16.14.33.28.5.42.15.12.31.24.47.35.14.1.29.19.43.28.15.09.31.18.47.27.21.11.42.21.63.3.23.1.47.18.7.26.15.05.29.09.44.13.13.04.26.07.38.1.09.02.17.04.26.06.1.02.2.04.31.06.04,0,.08.01.12.02.03,0,.07.01.1.01.03,0,.06,0,.08,0v-.9s-.04,0-.07,0c-1.2-.15-2.15-.54-2.97-1.06-.81-.51-1.49-1.16-2.15-1.84.66-.68,1.35-1.33,2.15-1.84.83-.53,1.78-.91,2.97-1.06.02,0,.04,0,.07,0v-.9s-.06,0-.08,0c-.03,0-.06,0-.08.01-.03,0-.07.01-.1.02-.04,0-.08.01-.12.02-.04,0-.09.02-.13.03-.05.01-.1.02-.14.03-.09.02-.17.04-.26.06-.11.03-.22.06-.33.09-.11.03-.22.06-.33.1-.21.06-.42.14-.62.22-.19.07-.38.16-.56.25-.16.08-.32.16-.48.25-.13.07-.25.15-.38.23-.12.08-.25.16-.37.25-.14.1-.27.2-.41.31-.15.12-.29.23-.43.35-.15.13-.29.26-.43.39-.23.21-.46.43-.7.67Z"/><path class="cls-1" d="m18.27,5.66c0,.19,0,.39-.02.58-.01.18-.04.36-.06.54-.03.17-.06.34-.11.5-.04.16-.09.31-.15.47-.06.15-.12.29-.19.43-.07.13-.15.26-.24.39-.09.12-.18.24-.28.35-.1.11-.21.22-.32.31-.12.1-.24.19-.36.28-.13.09-.27.17-.41.24-.15.08-.3.14-.45.2-.16.06-.33.12-.5.17-.18.05-.36.09-.54.13-.2.04-.4.07-.59.09-.2.03-.39.04-.63.06-.26.02-.57.04-.57.04v.91s.38-.02.67-.05c.27-.02.49-.04.72-.07.22-.03.45-.06.68-.11.21-.04.42-.09.63-.15.19-.06.39-.12.58-.2.18-.07.36-.15.53-.24.16-.09.32-.18.48-.29.15-.1.29-.21.43-.33.13-.12.26-.24.38-.38.12-.13.23-.28.33-.42.1-.15.19-.31.28-.47.09-.17.16-.34.23-.51.07-.18.13-.37.18-.55.05-.2.09-.4.13-.6.03-.21.06-.43.08-.64.02-.23.02-.46.02-.68v-1.94h-.9v1.94Z"/><path class="cls-1" d="m20.28,21.62H3.72c-.12,0-.22-.1-.22-.22V2.6c0-.12.1-.22.22-.22h16.56c.12,0,.22.1.22.22v18.8c0,.12-.1.22-.22.22Zm-16.35-.44h16.13V2.82H3.94v18.36Z"/></svg>