<?xml version="1.0" encoding="UTF-8"?><svg id="Layer_1" xmlns="http://www.w3.org/2000/svg" viewBox="0 0 24 24"><defs><style>.cls-1{stroke-width:0px;}</style></defs><path class="cls-1" d="m10.48,15.42c-.21-.19-.44-.37-.66-.53-.2-.14-.4-.28-.61-.41-.09-.05-.18-.11-.28-.16-.13-.07-.25-.13-.38-.19-.13-.06-.27-.12-.41-.17-.14-.05-.29-.1-.43-.14-.31-.09-.63-.16-.96-.2-.34-.05-.68-.07-1.02-.07v5.82c.34,0,.68-.02,1.02-.07.32-.04.64-.11.96-.2.15-.04.29-.09.43-.14.14-.05.27-.11.41-.17.23-.1.45-.22.66-.35.09-.05.18-.11.26-.17.12-.08.23-.16.35-.24.11-.08.23-.17.34-.26.11-.09.22-.18.33-.28.22-.19.43-.39.64-.59.16-.15.31-.3.47-.46-.15-.15-.31-.31-.47-.46-.21-.2-.42-.4-.64-.59Z"/><path class="cls-1" d="m20.5,2.38H3.5v19.23h17V2.38Zm-15.66,1.34h.9v3.28c.24-.24.47-.46.7-.67.14-.13.29-.26.43-.39.14-.12.28-.24.43-.35.13-.11.27-.21.41-.31.12-.09.24-.17.37-.25.12-.08.25-.16.38-.23.16-.09.32-.17.48-.25.18-.09.37-.17.56-.25.2-.08.41-.15.62-.22.11-.03.22-.07.33-.1.11-.03.22-.06.33-.09.09-.02.17-.04.26-.06.05-.01.1-.02.14-.03.04,0,.09-.02.13-.03.04,0,.08-.02.12-.02.03,0,.07-.01.1-.02.03,0,.06,0,.08-.01.03,0,.06,0,.08,0v.9s-.04,0-.07,0c-1.2.15-2.15.54-2.97,1.06-.81.51-1.49,1.16-2.15,1.84.66.68,1.35,1.33,2.15,1.84.83.53,1.78.91,2.97,1.06.02,0,.04,0,.07,0v.9s-.06,0-.08,0c-.03,0-.07,0-.1-.01-.04,0-.08-.01-.12-.02-.1-.02-.21-.04-.31-.06-.09-.02-.17-.04-.26-.06-.13-.03-.26-.06-.38-.1-.15-.04-.3-.08-.44-.13-.24-.08-.47-.16-.7-.26-.22-.09-.43-.19-.63-.3-.16-.08-.32-.17-.47-.27-.15-.09-.29-.19-.43-.28-.16-.11-.31-.23-.47-.35-.17-.13-.34-.27-.5-.42-.15-.13-.3-.27-.45-.4-.21-.19-.41-.39-.62-.59v3.27h-.9V3.72Zm14.33,9.84h-.07c-.28,0-.55.01-.83.04-.26.02-.51.06-.76.11-.24.04-.47.1-.7.17-.22.06-.43.14-.64.22-.2.08-.4.17-.59.27-.12.06-.25.13-.37.2-.18.1-.35.21-.52.33-.17.12-.33.24-.49.36-.16.12-.31.25-.46.39-.3.26-.59.54-.88.82.29.28.58.56.88.82.15.13.3.26.46.39.16.13.32.25.49.36.17.12.34.23.52.33.12.07.24.14.37.2.19.1.39.19.59.27.21.08.42.16.64.22.23.07.46.12.7.17.25.05.51.08.76.11.28.03.55.04.83.04h.07v.9s-.05,0-.08,0c-.25,0-.51-.02-.76-.04-.21-.02-.42-.04-.62-.07-.17-.02-.34-.05-.51-.08-.1-.02-.2-.04-.3-.06-.06-.01-.13-.03-.19-.05-.07-.02-.13-.04-.19-.05-.14-.04-.28-.09-.41-.14-.15-.05-.3-.11-.44-.17-.14-.06-.28-.13-.42-.2-.21-.11-.42-.22-.62-.35-.1-.06-.21-.13-.31-.2-.12-.08-.24-.17-.36-.25-.23-.17-.45-.35-.67-.53-.21-.18-.41-.36-.61-.55-.15-.14-.29-.28-.44-.42-.3.3-.6.6-.92.88-.16.14-.32.28-.48.42-.17.14-.33.27-.51.39-.18.13-.36.25-.54.36-.13.08-.26.15-.39.22-.2.11-.41.21-.62.3-.22.09-.45.18-.68.25-.24.07-.49.14-.74.19-.27.05-.54.09-.81.12-.29.03-.59.04-.88.04h-.82v-7.61h.82c.29,0,.59.01.88.04.27.03.54.06.81.12.25.05.5.11.74.19.23.07.46.15.68.25.21.09.42.19.62.3.13.07.26.15.39.22.18.11.36.24.54.36.17.13.34.26.51.39.16.14.32.28.48.42.31.28.62.58.92.88.14-.14.29-.28.44-.42.2-.19.4-.37.61-.55.22-.19.44-.36.67-.53.12-.09.24-.17.36-.25.1-.07.21-.13.31-.2.2-.12.41-.24.62-.35.07-.03.14-.07.21-.1.07-.03.14-.06.21-.1.14-.06.29-.12.44-.17.14-.05.27-.1.41-.14.06-.02.13-.04.19-.05.06-.02.13-.03.19-.05.1-.02.2-.04.3-.06.17-.03.34-.06.51-.08.21-.03.42-.05.62-.07.25-.02.51-.03.76-.04.03,0,.05,0,.08,0v.9Zm0-7.9c0,.23,0,.46-.02.68-.02.21-.04.43-.08.64-.03.2-.07.4-.13.6-.05.19-.11.37-.18.55-.07.17-.14.34-.23.51-.08.16-.18.32-.28.47-.1.15-.21.29-.33.42-.12.13-.24.26-.38.38-.14.12-.28.23-.43.33-.15.11-.31.2-.48.29-.17.09-.35.17-.53.24-.19.08-.38.14-.58.2-.21.06-.41.11-.63.15-.23.05-.46.08-.67.11-.23.03-.45.05-.72.07-.29.02-.64.05-.67.05v-.91s.31-.02.57-.04c.24-.02.43-.04.63-.06.19-.02.39-.05.59-.09.18-.04.36-.08.54-.13.17-.05.33-.1.5-.17.15-.06.31-.13.45-.2.14-.07.28-.15.41-.24.13-.09.25-.18.36-.28.11-.1.22-.2.32-.31.1-.11.19-.23.28-.35.09-.12.17-.26.24-.39.07-.14.14-.28.19-.43.06-.15.11-.31.15-.47.04-.17.08-.33.11-.5.03-.18.05-.36.06-.54.01-.19.02-.39.02-.58v-1.94h.9v1.94Z"/></svg>