<?xml version="1.0" encoding="utf-8"?>
<!-- Generator: Adobe Illustrator 28.0.0, SVG Export Plug-In . SVG Version: 6.00 Build 0)  -->
<svg version="1.1" id="_레이어_1" xmlns="http://www.w3.org/2000/svg" xmlns:xlink="http://www.w3.org/1999/xlink" x="0px"
	 y="0px" viewBox="0 0 977.8 768.5" style="enable-background:new 0 0 977.8 768.5;" xml:space="preserve">
<style type="text/css">
	.st0{fill:#143FE5;}
	.st1{fill:#FFFFFF;stroke:#143FE5;stroke-width:2;stroke-miterlimit:10;}
	.st2{fill:#E7EAF6;}
	.st3{fill:#FFFFFF;}
	.st4{font-family:'NanumBarunGothic';}
	.st5{font-size:14px;}
	.st6{fill:#4FB8BF;}
	.st7{font-size:18px;}
	.st8{font-family:'AdobeMyungjoStd-Medium-KSCpc-EUC-H';}
	.st9{fill:none;stroke:#143FE5;stroke-width:2;stroke-miterlimit:10;}
</style>
<path class="st0" d="M833,437.6l-8.2,3.1c-2.6,1-5.5-0.4-6.3-3.1l-1.2-3.9c-0.4-1.2,0.5-2.5,1.8-2.5l0,0c2.8,0,5-2.2,5-5v-19.9
	c0-2.8-2.2-5-5-5h-63.3c-2.8,0-5,2.2-5,5v19.9c0,2.8,2.2,5,5,5h38.6c2.2,0,4.1,1.4,4.8,3.5l3,9.3c0.8,2.5-0.5,5.3-3,6.2l-39.2,14.6
	c-2.6,1-3.9,3.8-2.9,6.4l8.3,22.3c1,2.6,3.8,3.9,6.4,2.9l73.1-27.2c2.6-1,3.9-3.8,2.9-6.4l-8.3-22.3
	C838.5,438,835.6,436.7,833,437.6L833,437.6z"/>
<path class="st1" d="M905.4,514.4h-79.9c-2.8,0-5-2.2-5-5v-40.4c0-2.1,2.5-3.1,4-1.6l6.7,6.6h74.3c2.8,0,5,2.2,5,5v30.4
	C910.4,512.2,908.2,514.4,905.4,514.4L905.4,514.4z"/>
<path class="st0" d="M312.1,593.2h62.2c2.8,0,5,2.2,5,5v40.5c0,2.8-2.2,5-5,5h-62.2c-2.8,0-5-2.2-5-5v-40.5
	C307.1,595.4,309.4,593.2,312.1,593.2z"/>
<path class="st0" d="M236.6,534.6h47.6c2.8,0,5,2.2,5,5v117.6c0,2.8-2.2,5-5,5h-47.6c-2.8,0-5-2.2-5-5V539.6
	C231.6,536.8,233.8,534.6,236.6,534.6z"/>
<path class="st0" d="M123.5,448.3l27.2,27.2c2,2,2,5.1,0,7.1l-83.1,83.1c-2,2-5.1,2-7.1,0l-27.2-27.2c-2-2-2-5.1,0-7.1l83.1-83.1
	C118.4,446.4,121.6,446.4,123.5,448.3z"/>
<path class="st0" d="M307.5,676.5h78.8c2.8,0,5,2.2,5,5v22.3c0,2.8-2.2,5-5,5h-78.8c-2.8,0-5-2.2-5-5v-22.3
	C302.5,678.8,304.8,676.5,307.5,676.5z"/>
<path class="st0" d="M160.8,581l-34.7-28.7c-2.1-1.8-5.3-1.5-7,0.7l-13.3,16.1c-1.8,2.1-1.5,5.3,0.7,7l47.3,39.2
	c0.9,0.7,2,1.2,3.2,1.2H202c2.8,0,5-2.2,5-5v-24.3c0-2.8-2.2-5-5-5h-38C162.9,582.2,161.7,581.8,160.8,581L160.8,581z"/>
<path class="st0" d="M566.3,648.7v16.2c0,2.8-2.2,5-5,5H454c-2.8,0-5,2.2-5,5v20.7c0,2.8,2.2,5,5,5h135.5c2.8,0,5-2.2,5-5v-46.9
	c0-2.8-2.2-5-5-5h-18.2C568.6,643.7,566.4,645.9,566.3,648.7L566.3,648.7z"/>
<path class="st0" d="M450.2,574.2h143.1c2.8,0,5,2.2,5,5v30.2c0,2.8-2.2,5-5,5H450.2c-2.8,0-5-2.2-5-5v-30.2
	C445.2,576.4,447.4,574.2,450.2,574.2z"/>
<path class="st0" d="M661.6,377.9h48.1c2.8,0,5,2.2,5,5v25.9c0,2.8-2.2,5-5,5h-48.1c-2.8,0-5-2.2-5-5v-25.9
	C656.6,380.1,658.9,377.9,661.6,377.9z"/>
<path class="st0" d="M531.8,454.6h-58.8c-2.8,0-5,2.2-5,5v11.8c0,2.8-2.2,5-5,5h-6.6c-2.8,0-5,2.2-5,5v16.8c0,2.8,2.2,5,5,5h29.9
	c2.8,0,5-2.2,5-5v-2.5c0-2.8,2.2-5,5-5h35.6c2.8,0,5-2.2,5-5v-26C536.8,456.9,534.5,454.6,531.8,454.6L531.8,454.6z"/>
<path class="st0" d="M572.8,461.6v25.9c0,2.8,2.2,5,5,5h41c2.8,0,5,2.2,5,5v8c0,2.8,2.2,5,5,5h16.6c2.8,0,5-2.2,5-5v-43.9
	c0-2.8-2.2-5-5-5h-67.6C575,456.6,572.8,458.8,572.8,461.6z"/>
<path class="st2" d="M940.1,541.5H743.8c-3.2,0-5.8-2.6-5.8-5.8V357.9c0-3.2-2.6-5.8-5.8-5.8l0,0c-3.2,0-5.8,2.6-5.8,5.8v74.3
	c0,3.2-2.6,5.8-5.8,5.8h-69.9c-3.2,0-5.8-2.6-5.8-5.8V297.5c0-3.2-2.6-5.8-5.8-5.8H532.6c-3.2,0-5.8-2.6-5.8-5.8V150.7
	c0-3.2-2.6-5.8-5.8-5.8H396.4c-4.2,0-7-4.3-5.3-8.1l7.6-17.2c1.3-2.9,0-6.4-3-7.7l0,0c-2.9-1.3-6.4,0-7.6,3l-56.3,127.4
	c-0.3,0.7-0.5,1.5-0.5,2.4v77.6c0,4-4,6.8-7.8,5.5l-8.7-3.2c-1.3-0.5-2.8-0.5-4.1,0l-75.5,29.8c-3,1.2-4.4,4.5-3.3,7.5l0,0
	c1.2,3,4.6,4.4,7.5,3.3l71.4-28.2c1.3-0.5,2.8-0.5,4.1,0l68.2,25.2c2.3,0.8,3.8,3,3.8,5.5v62c0,3.5-3.1,6.2-6.6,5.8l-51.7-7.3
	c-2.9-0.4-5-2.9-5-5.8v-6.7c0-3.2-2.6-5.8-5.8-5.8l0,0c-3.2,0-5.8,2.6-5.8,5.8v5.2c0,3.2-2.6,5.8-5.8,5.8H165
	c-3.2,0-5.8,2.6-5.8,5.8V484c0,1.5-0.6,3-1.7,4.1L100,545.6c-2.3,2.3-2.3,5.9,0,8.2l0,0c2.3,2.3,5.9,2.3,8.2,0l50.5-50.5
	c2.3-2.3,5.9-2.3,8.2,0l21.4,21.4c1.1,1.1,2.6,1.7,4.1,1.7h14.8c3.2,0,5.8,2.6,5.8,5.8v133.6c0,3.2,2.6,5.8,5.8,5.8l0,0
	c3.2,0,5.8-2.6,5.8-5.8V532.2c0-3.2,2.6-5.8,5.8-5.8h75.8c3.2,0,5.8,2.6,5.8,5.8v26.8c0,3.2,2.6,5.8,5.8,5.8h100.8
	c3.2,0,5.8,2.6,5.8,5.8v140.1c0,3.2,2.6,5.8,5.8,5.8h183.1c3.2,0,5.8-2.6,5.8-5.8V570.5c0-3.2,2.6-5.8,5.8-5.8h315.2
	c3.2,0,5.8-2.6,5.8-5.8v-11.6C946,544.1,943.4,541.5,940.1,541.5L940.1,541.5z M193.1,513.1l-20.7-20.7c-1.1-1.1-1.7-2.6-1.7-4.1
	v-44.5c0-3.2,2.6-5.8,5.8-5.8h88.3c3.2,0,5.8,2.6,5.8,5.8V509c0,3.2-2.6,5.8-5.8,5.8h-67.6C195.7,514.8,194.2,514.2,193.1,513.1z
	 M306.2,514.8h-18.1c-3.2,0-5.8-2.6-5.8-5.8v-65.2c0-3.2,2.6-5.8,5.8-5.8h18.1c3.2,0,5.8,2.6,5.8,5.8V509
	C312,512.2,309.4,514.8,306.2,514.8z M515.2,162.3v123.6c0,3.2-2.6,5.8-5.8,5.8h-52.2c-3.2,0-5.8-2.6-5.8-5.8V162.3
	c0-3.2,2.6-5.8,5.8-5.8h52.2C512.6,156.5,515.2,159.1,515.2,162.3z M342.9,330.7V247c0-0.8,0.2-1.6,0.5-2.4l37.4-84.7
	c0.9-2.1,3-3.5,5.3-3.5H434c3.2,0,5.8,2.6,5.8,5.8v123.6c0,3.2-2.6,5.8-5.8,5.8h-41.2c-3.2,0-5.8,2.6-5.8,5.8v45.2
	c0,4-4,6.8-7.8,5.5l-32.5-12C344.4,335.3,342.9,333.1,342.9,330.7L342.9,330.7z M404.4,303.3h223.1c3.2,0,5.8,2.6,5.8,5.8v123.1
	c0,3.2-2.6,5.8-5.8,5.8H409l-4.6-0.3c-3.2,0-5.8-2.6-5.8-5.8V309.1C398.6,305.9,401.2,303.3,404.4,303.3L404.4,303.3z M557.5,511.2
	h41.6c3.2,0,5.8,2.6,5.8,5.8v18.7c0,3.2-2.6,5.8-5.8,5.8H447.6c-3.2,0-5.8-2.6-5.8-5.8v-80.3c0-3.2,2.6-5.8,5.8-5.8h98.3
	c3.2,0,5.8,2.6,5.8,5.8v50C551.7,508.6,554.3,511.2,557.5,511.2L557.5,511.2z M330.2,439.8l69.4,9.8c0.3,0,0.5,0.1,0.8,0.1h24
	c3.2,0,5.8,2.6,5.8,5.8v80.3c0,3.2-2.6,5.8-5.8,5.8h-95c-3.2,0-5.8-2.6-5.8-5.8v-90.2C323.6,442,326.7,439.3,330.2,439.8
	L330.2,439.8z M601.7,704.9H441.8c-3.2,0-5.8-2.6-5.8-5.8v-52.5c0-3.2,2.6-5.8,5.8-5.8h159.9c3.2,0,5.8,2.6,5.8,5.8v52.5
	C607.5,702.3,604.9,704.9,601.7,704.9L601.7,704.9z M601.7,629.2H441.8c-3.2,0-5.8-2.6-5.8-5.8v-52.8c0-3.2,2.6-5.8,5.8-5.8h159.9
	c3.2,0,5.8,2.6,5.8,5.8v52.8C607.5,626.6,604.9,629.2,601.7,629.2z M616.5,535.7v-30.3c0-3.2-2.6-5.8-5.8-5.8h-41.6
	c-3.2,0-5.8-2.6-5.8-5.8v-38.4c0-3.2,2.6-5.8,5.8-5.8h151.5c3.2,0,5.8,2.6,5.8,5.8v80.3c0,3.2-2.6,5.8-5.8,5.8h-98.3
	C619.1,541.6,616.5,539,616.5,535.7L616.5,535.7z"/>
<text transform="matrix(1 0 0 1 588.24 479.01)" class="st3 st4 st5">6공학관</text>
<text transform="matrix(1 0 0 1 475.53 481.27)" class="st3 st4 st5">도서관</text>
<text transform="matrix(1 0 0 1 487.04 599.06)" class="st3 st4 st5">(구)1공학관</text>
<path class="st0" d="M403.4,231.5v-21.7c0-2.8-2.2-5-5-5h-19.6c-2.8,0-5,2.2-5,5v47.4c0,2.8,2.2,5,5,5h49c2.8,0,5-2.2,5-5v-15.7
	c0-2.8-2.2-5-5-5h-19.3C405.7,236.5,403.4,234.2,403.4,231.5L403.4,231.5z"/>
<path class="st0" d="M409.5,309.1h212.9c2.8,0,5,2.2,5,5v113.1c0,2.8-2.2,5-5,5H409.5c-2.8,0-5-2.2-5-5V314.1
	C404.5,311.3,406.7,309.1,409.5,309.1z"/>
<text transform="matrix(1 0 0 1 498.45 690.75)" class="st3 st4 st5">2공학관</text>
<text transform="matrix(1 0 0 1 829.98 500.76)" class="st6 st4 st7">10공학관</text>
<text transform="matrix(1 0 0 1 909.7 557.97)" class="st0 st8 st5">정문</text>
<text transform="matrix(1 0 0 1 666.33 401.47)" class="st3 st4 st5">체육관</text>
<text transform="matrix(1 0 0 1 495.59 377.87)" class="st3 st4 st5">운동장</text>
<text transform="matrix(1 0 0 1 380.02 255.29)" class="st3 st4 st5">8공학관</text>
<path class="st0" d="M180.8,443h77.6c2.8,0,5,2.2,5,5v18.5c0,2.8-2.2,5-5,5h-77.6c-2.8,0-5-2.2-5-5V448
	C175.8,445.2,178,443,180.8,443z"/>
<text transform="matrix(1 0 0 1 323.63 697.72)" class="st3 st4 st5">3공학관</text>
<text transform="matrix(1 0 0 1 319.9 624.07)" class="st3 st4 st5">1공학관</text>
<text transform="matrix(1 0 0 1 237.06 602.83)" class="st3 st4 st5">4공학관</text>
<text transform="matrix(1 0 0 1 67.29 514.44)" class="st3 st4 st5">7공학관</text>
<text transform="matrix(1 0 0 1 138.47 598.36)" class="st3 st4 st5">산학협력관</text>
<text transform="matrix(1 0 0 1 196.28 462.87)" class="st3 st4 st5">5공학관</text>
<text transform="matrix(1 0 0 1 456.27 208.87)" class="st3 st4 st5">대학본부</text>
<path class="st0" d="M410,482.6h-47.9c-2.8,0-5-2.2-5-5v-3c0-2.8-2.2-5-5-5h-17c-2.8,0-5,2.2-5,5v58.4c0,2.8,2.2,5,5,5h17
	c2.8,0,5-2.2,5-5v-18.5c0-2.8,2.2-5,5-5H410c2.8,0,5-2.2,5-5v-17C415,484.8,412.7,482.6,410,482.6L410,482.6z"/>
<text transform="matrix(1 0 0 1 346.77 500.33)" class="st3 st4 st5">학생회관</text>
<path class="st0" d="M260.8,383l-5.6-14.1c-1-2.6-3.9-3.8-6.5-2.8l-21.9,8.6c-2.6,1-3.8,3.9-2.8,6.5l1.4,3.7
	c1.3,3.3-1.1,6.8-4.6,6.8h-55.2c-2.8,0-5,2.2-5,5v18.7c0,2.8,2.2,5,5,5h74.6c2.8,0,5-2.2,5-5v-17.5c0-2,1.2-3.9,3.2-4.6l9.6-3.8
	C260.5,388.5,261.7,385.5,260.8,383L260.8,383z"/>
<text transform="matrix(1 0 0 1 163.37 409.56)" class="st3 st4 st5">챌린지하우스</text>
<path class="st0" d="M304.5,344l-37.8,14.9c-2.6,1-3.8,3.9-2.8,6.5l5.6,14.1c1,2.6,3.9,3.8,6.5,2.8l28.9-11.4c1.1-0.5,2.4-0.5,3.6,0
	l44.4,16.4c2.6,1,5.5-0.4,6.4-3l5.3-14.3c1-2.6-0.4-5.5-3-6.4l-53.4-19.7C306.9,343.5,305.7,343.5,304.5,344L304.5,344z"/>
<text transform="matrix(1 0 0 1 281.1 366.14)" class="st3 st4 st5">용주학사</text>
<path class="st0" d="M462.4,175.5h42.2c2.8,0,5,2.2,5,5v80.4c0,2.8-2.2,5-5,5h-42.2c-2.8,0-5-2.2-5-5v-80.4
	C457.4,177.7,459.6,175.5,462.4,175.5z"/>
<text transform="matrix(1 0 0 1 460.12 227.28)" class="st3 st4 st5">9공학관</text>
<path class="st0" d="M279.4,233.5h39.2c2.8,0,5,2.2,5,5v77.3c0,2.8-2.2,5-5,5h-39.2c-2.8,0-5-2.2-5-5v-77.3
	C274.4,235.7,276.7,233.5,279.4,233.5z"/>
<path class="st0" d="M307.2,153.2l42.1,18.6c2.5,1.1,3.7,4.1,2.6,6.6l-18.7,42.4c-1.1,2.5-4.1,3.7-6.6,2.6l-42.1-18.6
	c-2.5-1.1-3.7-4.1-2.6-6.6l18.7-42.4C301.7,153.2,304.7,152.1,307.2,153.2z"/>
<path class="st0" d="M334,92.5l42.1,18.6c2.5,1.1,3.7,4.1,2.6,6.6L359.9,160c-1.1,2.5-4.1,3.7-6.6,2.6L311.3,144
	c-2.5-1.1-3.7-4.1-2.6-6.6l18.7-42.4C328.5,92.5,331.5,91.4,334,92.5z"/>
<path class="st0" d="M362.4,28.2l42.1,18.6c2.5,1.1,3.7,4.1,2.6,6.6l-18.7,42.4c-1.1,2.5-4.1,3.7-6.6,2.6l-42.1-18.6
	c-2.5-1.1-3.7-4.1-2.6-6.6l18.7-42.4C357,28.2,359.9,27,362.4,28.2z"/>
<text transform="matrix(1 0 0 1 285.38 271.7)" class="st3 st4 st5">도솔</text>
<text transform="matrix(1 0 0 1 278.94 288.5)" class="st3 st4 st5">하우스</text>
<text transform="matrix(1 0 0 1 296.88 192.5)" class="st3 st4 st5">농구장</text>
<text transform="matrix(1 0 0 1 318.4 131.54)" class="st3 st4 st5">테니스장</text>
<text transform="matrix(1 0 0 1 356.54 58.05)" class="st3 st4 st5">해양</text>
<text transform="matrix(1 0 0 1 343.66 74.85)" class="st3 st4 st5">플랜트동</text>
<g>
	<path class="st0" d="M691,497h-2.1v3.6h-2.1v-10.1h4.4c1,0,1.8,0.3,2.4,0.8s0.9,1.3,0.9,2.4c0,1.2-0.3,2-0.9,2.5S692.2,497,691,497
		L691,497z M692,494.9c0.3-0.2,0.4-0.6,0.4-1.1s-0.1-0.9-0.4-1.1c-0.3-0.2-0.7-0.3-1.2-0.3h-2v3h2
		C691.4,495.3,691.8,495.1,692,494.9L692,494.9z"/>
	<circle class="st9" cx="690.2" cy="495.6" r="8.2"/>
</g>
<g>
	<path class="st0" d="M573.6,274.1h-2.1v3.6h-2.1v-10.1h4.4c1,0,1.8,0.3,2.4,0.8s0.9,1.3,0.9,2.4c0,1.2-0.3,2-0.9,2.5
		S574.7,274.1,573.6,274.1L573.6,274.1z M574.6,272c0.3-0.2,0.4-0.6,0.4-1.1s-0.1-0.9-0.4-1.1c-0.3-0.2-0.7-0.3-1.2-0.3h-2v3h2
		C573.9,272.4,574.3,272.2,574.6,272L574.6,272z"/>
	<circle class="st9" cx="572.8" cy="272.7" r="8.2"/>
</g>
<g>
	<path class="st0" d="M422.8,217.3h-2.1v3.6h-2.1v-10.1h4.4c1,0,1.8,0.3,2.4,0.8s0.9,1.3,0.9,2.4c0,1.2-0.3,2-0.9,2.5
		S424,217.3,422.8,217.3L422.8,217.3z M423.8,215.2c0.3-0.2,0.4-0.6,0.4-1.1s-0.1-0.9-0.4-1.1c-0.3-0.2-0.7-0.3-1.2-0.3h-2v3h2
		C423.2,215.6,423.5,215.5,423.8,215.2L423.8,215.2z"/>
	<circle class="st9" cx="422" cy="215.9" r="8.2"/>
</g>
<g>
	<path class="st0" d="M366.2,317.1h-2.1v3.6H362v-10.1h4.4c1,0,1.8,0.3,2.4,0.8s0.9,1.3,0.9,2.4c0,1.2-0.3,2-0.9,2.5
		S367.4,317.1,366.2,317.1L366.2,317.1z M367.2,315c0.3-0.2,0.4-0.6,0.4-1.1s-0.1-0.9-0.4-1.1c-0.3-0.2-0.7-0.3-1.2-0.3h-2v3h2
		C366.6,315.4,366.9,315.3,367.2,315L367.2,315z"/>
	<circle class="st9" cx="365.4" cy="315.7" r="8.2"/>
</g>
<g>
	<path class="st0" d="M228.6,493.7h-2.1v3.6h-2.1v-10.1h4.4c1,0,1.8,0.3,2.4,0.8s0.9,1.3,0.9,2.4c0,1.2-0.3,2-0.9,2.5
		S229.7,493.7,228.6,493.7L228.6,493.7z M229.6,491.6c0.3-0.2,0.4-0.6,0.4-1.1s-0.1-0.9-0.4-1.1c-0.3-0.2-0.7-0.3-1.2-0.3h-2v3h2
		C228.9,492,229.3,491.8,229.6,491.6L229.6,491.6z"/>
	<circle class="st9" cx="227.8" cy="492.3" r="8.2"/>
</g>
<g>
	<path class="st0" d="M176.6,552.6h-2.1v3.6h-2.1v-10.1h4.4c1,0,1.8,0.3,2.4,0.8s0.9,1.3,0.9,2.4c0,1.2-0.3,2-0.9,2.5
		S177.7,552.6,176.6,552.6L176.6,552.6z M177.6,550.5c0.3-0.2,0.4-0.6,0.4-1.2s-0.1-0.9-0.4-1.1c-0.3-0.2-0.7-0.3-1.2-0.3h-2v3h2
		C176.9,550.9,177.3,550.8,177.6,550.5L177.6,550.5z"/>
	<circle class="st9" cx="175.8" cy="551.2" r="8.2"/>
</g>
<g>
	<path class="st0" d="M657.5,674.2h-2.1v3.6h-2.1v-10.1h4.4c1,0,1.8,0.3,2.4,0.8s0.9,1.3,0.9,2.4c0,1.2-0.3,2-0.9,2.5
		S658.6,674.2,657.5,674.2L657.5,674.2z M658.4,672.2c0.3-0.2,0.4-0.6,0.4-1.2s-0.1-0.9-0.4-1.1c-0.3-0.2-0.7-0.3-1.2-0.3h-2v3h2
		C657.8,672.5,658.2,672.4,658.4,672.2L658.4,672.2z"/>
	<circle class="st9" cx="656.6" cy="672.8" r="8.2"/>
</g>
<g>
	<path class="st0" d="M522.9,735.6h-2.1v3.6h-2.1v-10.1h4.4c1,0,1.8,0.3,2.4,0.8s0.9,1.3,0.9,2.4c0,1.2-0.3,2-0.9,2.5
		S524,735.5,522.9,735.6L522.9,735.6z M523.8,733.5c0.3-0.2,0.4-0.6,0.4-1.2s-0.1-0.9-0.4-1.1c-0.3-0.2-0.7-0.3-1.2-0.3h-2v3h2
		C523.2,733.8,523.6,733.7,523.8,733.5L523.8,733.5z"/>
	<circle class="st9" cx="522" cy="734.2" r="8.2"/>
</g>
<g>
	<path class="st0" d="M785.5,380.4h-2.1v3.6h-2.1v-10.1h4.4c1,0,1.8,0.3,2.4,0.8s0.9,1.3,0.9,2.4c0,1.2-0.3,2-0.9,2.5
		S786.6,380.4,785.5,380.4L785.5,380.4z M786.5,378.3c0.3-0.2,0.4-0.6,0.4-1.1s-0.1-0.9-0.4-1.1c-0.3-0.2-0.7-0.3-1.2-0.3h-2v3h2
		C785.8,378.7,786.2,378.5,786.5,378.3L786.5,378.3z"/>
	<circle class="st9" cx="784.7" cy="379" r="8.2"/>
</g>
</svg>
