<?xml version="1.0" encoding="UTF-8"?>
<svg id="_레이어_1" data-name="레이어 1" xmlns="http://www.w3.org/2000/svg" viewBox="0 0 977.75 768.47">
  <defs>
    <style>
      .cls-1 {
        fill: #e8e7f8;
      }

      .cls-2, .cls-3 {
        fill: #544bce;
      }

      .cls-4, .cls-5 {
        fill: #fff;
      }

      .cls-4, .cls-6 {
        stroke: #544bce;
        stroke-miterlimit: 10;
        stroke-width: 2px;
      }

      .cls-5, .cls-3 {
        font-family: NotoSansKR-Medium-KSCpc-EUC-H, 'Noto Sans KR';
        font-size: 14px;
        font-weight: 500;
      }

      .cls-6 {
        fill: none;
      }

      .cls-7 {
        fill: #ff914d;
        font-family: NotoSansKR-Bold-KSCpc-EUC-H, 'Noto Sans KR';
        font-size: 18px;
        font-weight: 700;
      }
    </style>
  </defs>
  <path class="cls-2" d="m833.05,437.62l-8.22,3.06c-2.59.96-5.47-.43-6.31-3.07l-1.24-3.86c-.39-1.22.52-2.47,1.8-2.47h0c2.76,0,5-2.24,5-5v-19.85c0-2.76-2.24-5-5-5h-63.34c-2.76,0-5,2.24-5,5v19.85c0,2.76,2.24,5,5,5h38.62c2.17,0,4.1,1.4,4.76,3.48l2.97,9.29c.81,2.54-.51,5.28-3.02,6.21l-39.15,14.56c-2.59.96-3.91,3.84-2.94,6.43l8.29,22.29c.96,2.59,3.84,3.91,6.43,2.94l73.12-27.19c2.59-.96,3.91-3.84,2.94-6.43l-8.29-22.29c-.96-2.59-3.84-3.91-6.43-2.94Z"/>
  <path class="cls-4" d="m905.41,514.44h-79.9c-2.76,0-5-2.24-5-5v-40.36c0-2.07,2.51-3.11,3.97-1.65l6.65,6.65h74.27c2.76,0,5,2.24,5,5v30.35c0,2.76-2.24,5-5,5Z"/>
  <rect class="cls-2" x="307.13" y="593.21" width="72.17" height="50.46" rx="5" ry="5"/>
  <rect class="cls-2" x="231.57" y="534.57" width="57.61" height="127.58" rx="5" ry="5"/>
  <rect class="cls-2" x="67.76" y="443.28" width="48.51" height="127.58" rx="5" ry="5" transform="translate(385.5 83.45) rotate(45)"/>
  <rect class="cls-2" x="302.55" y="676.52" width="88.78" height="32.27" rx="5" ry="5"/>
  <path class="cls-2" d="m160.83,581.05l-34.68-28.7c-2.13-1.76-5.28-1.46-7.04.66l-13.34,16.12c-1.76,2.13-1.46,5.28.66,7.04l47.31,39.15c.9.74,2.02,1.15,3.19,1.15h45.07c2.76,0,5-2.24,5-5v-24.28c0-2.76-2.24-5-5-5h-37.98c-1.16,0-2.29-.41-3.19-1.15Z"/>
  <path class="cls-2" d="m566.35,648.67v16.2c0,2.76-2.24,5-5,5h-107.34c-2.76,0-5,2.24-5,5v20.72c0,2.76,2.24,5,5,5h135.51c2.76,0,5-2.24,5-5v-46.91c0-2.76-2.24-5-5-5h-18.16c-2.76,0-5,2.24-5,5Z"/>
  <rect class="cls-2" x="445.19" y="574.21" width="153.13" height="40.15" rx="5" ry="5"/>
  <rect class="cls-2" x="656.62" y="377.87" width="58.06" height="35.93" rx="5" ry="5"/>
  <path class="cls-2" d="m531.79,454.61h-58.84c-2.76,0-5,2.24-5,5v11.78c0,2.76-2.24,5-5,5h-6.58c-2.76,0-5,2.24-5,5v16.76c0,2.76,2.24,5,5,5h29.86c2.76,0,5-2.24,5-5v-2.53c0-2.76,2.24-5,5-5h35.56c2.76,0,5-2.24,5-5v-26c0-2.76-2.24-5-5-5Z"/>
  <path class="cls-2" d="m572.75,461.58v25.93c0,2.76,2.24,5,5,5h41.01c2.76,0,5,2.24,5,5v7.97c0,2.76,2.24,5,5,5h16.6c2.76,0,5-2.24,5-5v-43.9c0-2.76-2.24-5-5-5h-67.61c-2.76,0-5,2.24-5,5Z"/>
  <path class="cls-1" d="m940.12,541.53h-196.31c-3.21,0-5.8-2.6-5.8-5.8v-177.86c0-3.21-2.6-5.8-5.8-5.8h0c-3.21,0-5.8,2.6-5.8,5.8v74.31c0,3.21-2.6,5.8-5.8,5.8h-69.87c-3.21,0-5.8-2.6-5.8-5.8v-134.72c0-3.21-2.6-5.8-5.8-5.8h-106.51c-3.21,0-5.8-2.6-5.8-5.8v-135.2c0-3.21-2.6-5.8-5.8-5.8h-124.63c-4.19,0-7-4.31-5.31-8.15l7.61-17.23c1.3-2.93-.03-6.36-2.96-7.65h0c-2.93-1.3-6.36.03-7.65,2.96l-56.27,127.39c-.33.74-.49,1.54-.49,2.35v77.59c0,4.04-4.02,6.84-7.81,5.45l-8.69-3.21c-1.34-.49-2.81-.48-4.14.05l-75.5,29.79c-2.98,1.18-4.44,4.55-3.27,7.53h0c1.18,2.98,4.55,4.44,7.53,3.27l71.38-28.17c1.33-.52,2.8-.54,4.14-.05l68.23,25.17c2.28.84,3.8,3.01,3.8,5.45v61.97c0,3.53-3.12,6.24-6.61,5.75l-51.73-7.3c-2.86-.4-4.99-2.85-4.99-5.75v-6.73c0-3.21-2.6-5.8-5.8-5.8h0c-3.21,0-5.8,2.6-5.8,5.8v5.25c0,3.21-2.6,5.8-5.8,5.8h-141.3c-3.21,0-5.8,2.6-5.8,5.8v51.79c0,1.54-.61,3.02-1.7,4.1l-57.48,57.48c-2.27,2.27-2.27,5.94,0,8.21h0c2.27,2.27,5.94,2.27,8.21,0l50.53-50.53c2.27-2.27,5.94-2.27,8.21,0l21.45,21.45c1.09,1.09,2.56,1.7,4.1,1.7h14.79c3.21,0,5.8,2.6,5.8,5.8v133.56c0,3.21,2.6,5.8,5.8,5.8h0c3.21,0,5.8-2.6,5.8-5.8v-133.56c0-3.21,2.6-5.8,5.8-5.8h75.78c3.21,0,5.8,2.6,5.8,5.8v26.75c0,3.21,2.6,5.8,5.8,5.8h100.78c3.21,0,5.8,2.6,5.8,5.8v140.15c0,3.21,2.6,5.8,5.8,5.8h183.15c3.21,0,5.8-2.6,5.8-5.8v-140.15c0-3.21,2.6-5.8,5.8-5.8h315.17c3.21,0,5.8-2.6,5.8-5.8v-11.61c0-3.21-2.6-5.8-5.8-5.8Zm-747-28.45l-20.72-20.72c-1.09-1.09-1.7-2.56-1.7-4.1v-44.46c0-3.21,2.6-5.8,5.8-5.8h88.34c3.21,0,5.8,2.6,5.8,5.8v65.18c0,3.21-2.6,5.8-5.8,5.8h-67.62c-1.54,0-3.02-.61-4.1-1.7Zm113.07,1.7h-18.13c-3.21,0-5.8-2.6-5.8-5.8v-65.18c0-3.21,2.6-5.8,5.8-5.8h18.13c3.21,0,5.8,2.6,5.8,5.8v65.18c0,3.21-2.6,5.8-5.8,5.8Zm209-352.51v123.59c0,3.21-2.6,5.8-5.8,5.8h-52.2c-3.21,0-5.8-2.6-5.8-5.8v-123.59c0-3.21,2.6-5.8,5.8-5.8h52.2c3.21,0,5.8,2.6,5.8,5.8Zm-172.3,168.4v-83.7c0-.81.17-1.61.49-2.35l37.41-84.7c.93-2.1,3.01-3.46,5.31-3.46h47.86c3.21,0,5.8,2.6,5.8,5.8v123.59c0,3.21-2.6,5.8-5.8,5.8h-41.22c-3.21,0-5.8,2.6-5.8,5.8v45.17c0,4.04-4.02,6.84-7.81,5.45l-32.45-11.97c-2.28-.84-3.8-3.01-3.8-5.45Zm61.47-27.4h223.15c3.21,0,5.8,2.6,5.8,5.8v123.12c0,3.21-2.6,5.8-5.8,5.8h-218.56l-4.63-.27c-3.19-.03-5.76-2.62-5.76-5.8v-122.84c0-3.21,2.6-5.8,5.8-5.8Zm153.14,207.98h41.61c3.21,0,5.8,2.6,5.8,5.8v18.68c0,3.21-2.6,5.8-5.8,5.8h-151.51c-3.21,0-5.8-2.6-5.8-5.8v-80.33c0-3.21,2.6-5.8,5.8-5.8h98.29c3.21,0,5.8,2.6,5.8,5.8v50.04c0,3.21,2.6,5.8,5.8,5.8Zm-227.28-71.49l69.38,9.79c.27.04.54.06.81.06h23.98c3.21,0,5.8,2.6,5.8,5.8v80.33c0,3.21-2.6,5.8-5.8,5.8h-94.98c-3.21,0-5.8-2.6-5.8-5.8v-90.23c0-3.53,3.12-6.24,6.61-5.75Zm271.51,265.15h-159.93c-3.21,0-5.8-2.6-5.8-5.8v-52.53c0-3.21,2.6-5.8,5.8-5.8h159.93c3.21,0,5.8,2.6,5.8,5.8v52.53c0,3.21-2.6,5.8-5.8,5.8Zm0-75.74h-159.93c-3.21,0-5.8-2.6-5.8-5.8v-52.8c0-3.21,2.6-5.8,5.8-5.8h159.93c3.21,0,5.8,2.6,5.8,5.8v52.8c0,3.21-2.6,5.8-5.8,5.8Zm14.79-93.43v-30.29c0-3.21-2.6-5.8-5.8-5.8h-41.61c-3.21,0-5.8-2.6-5.8-5.8v-38.43c0-3.21,2.6-5.8,5.8-5.8h151.48c3.21,0,5.8,2.6,5.8,5.8v80.33c0,3.21-2.6,5.8-5.8,5.8h-98.27c-3.21,0-5.8-2.6-5.8-5.8Z"/>
  <text class="cls-5" transform="translate(588.24 479.01)"><tspan x="0" y="0">6공학관</tspan></text>
  <text class="cls-5" transform="translate(475.53 481.27)"><tspan x="0" y="0">도서관</tspan></text>
  <text class="cls-5" transform="translate(487.04 599.06)"><tspan x="0" y="0">(구)1공학관</tspan></text>
  <path class="cls-2" d="m403.42,231.49v-21.68c0-2.76-2.24-5-5-5h-19.64c-2.76,0-5,2.24-5,5v47.37c0,2.76,2.24,5,5,5h48.97c2.76,0,5-2.24,5-5v-15.69c0-2.76-2.24-5-5-5h-19.34c-2.76,0-5-2.24-5-5Z"/>
  <rect class="cls-2" x="404.5" y="309.07" width="222.86" height="123.12" rx="5" ry="5"/>
  <text class="cls-5" transform="translate(498.45 690.75)"><tspan x="0" y="0">2공학관</tspan></text>
  <text class="cls-7" transform="translate(829.98 500.76)"><tspan x="0" y="0">10공학관</tspan></text>
  <text class="cls-3" transform="translate(909.7 557.97)"><tspan x="0" y="0">정문</tspan></text>
  <text class="cls-5" transform="translate(666.33 401.47)"><tspan x="0" y="0">체육관</tspan></text>
  <text class="cls-5" transform="translate(495.59 377.87)"><tspan x="0" y="0">운동장</tspan></text>
  <text class="cls-5" transform="translate(380.02 255.29)"><tspan x="0" y="0">8공학관</tspan></text>
  <rect class="cls-2" x="175.77" y="443.01" width="87.63" height="28.46" rx="5" ry="5"/>
  <text class="cls-5" transform="translate(323.63 697.72)"><tspan x="0" y="0">3공학관</tspan></text>
  <text class="cls-5" transform="translate(319.9 624.07)"><tspan x="0" y="0">1공학관</tspan></text>
  <text class="cls-5" transform="translate(237.06 602.83)"><tspan x="0" y="0">4공학관</tspan></text>
  <text class="cls-5" transform="translate(67.29 514.44)"><tspan x="0" y="0">7공학관</tspan></text>
  <text class="cls-5" transform="translate(138.47 598.36)"><tspan x="0" y="0">산학협력관</tspan></text>
  <text class="cls-5" transform="translate(196.28 462.87)"><tspan x="0" y="0">5공학관</tspan></text>
  <text class="cls-5" transform="translate(456.27 208.87)"><tspan x="0" y="0">대학본부</tspan></text>
  <path class="cls-2" d="m409.98,482.61h-47.92c-2.76,0-5-2.24-5-5v-2.97c0-2.76-2.24-5-5-5h-16.99c-2.76,0-5,2.24-5,5v58.42c0,2.76,2.24,5,5,5h16.99c2.76,0,5-2.24,5-5v-18.46c0-2.76,2.24-5,5-5h47.92c2.76,0,5-2.24,5-5v-16.99c0-2.76-2.24-5-5-5Z"/>
  <text class="cls-5" transform="translate(346.77 500.33)"><tspan x="0" y="0">학생회관</tspan></text>
  <path class="cls-2" d="m260.75,382.97l-5.58-14.15c-1.01-2.57-3.92-3.83-6.49-2.82l-21.88,8.64c-2.57,1.01-3.83,3.92-2.82,6.49l1.44,3.66c1.29,3.28-1.12,6.84-4.65,6.84h-55.17c-2.76,0-5,2.24-5,5v18.71c0,2.76,2.24,5,5,5h74.6c2.76,0,5-2.24,5-5v-17.46c0-2.05,1.25-3.9,3.16-4.65l9.56-3.77c2.57-1.01,3.83-3.92,2.82-6.49Z"/>
  <text class="cls-5" transform="translate(163.37 409.56)"><tspan x="0" y="0">챌린지하우스</tspan></text>
  <path class="cls-2" d="m304.53,343.97l-37.84,14.93c-2.57,1.01-3.83,3.92-2.82,6.49l5.58,14.15c1.01,2.57,3.92,3.83,6.49,2.82l28.89-11.4c1.14-.45,2.41-.47,3.57-.04l44.36,16.36c2.59.96,5.47-.37,6.42-2.96l5.26-14.27c.96-2.59-.37-5.47-2.96-6.42l-53.39-19.7c-1.15-.43-2.42-.41-3.57.04Z"/>
  <text class="cls-5" transform="translate(281.1 366.14)"><tspan x="0" y="0">용주학사</tspan></text>
  <rect class="cls-2" x="457.41" y="175.47" width="52.21" height="90.35" rx="5" ry="5"/>
  <text class="cls-5" transform="translate(460.12 227.28)"><tspan x="0" y="0">9공학관</tspan></text>
  <rect class="cls-2" x="274.44" y="233.49" width="49.17" height="87.27" rx="5" ry="5"/>
  <rect class="cls-2" x="288.86" y="160.1" width="55.97" height="56.31" rx="5" ry="5" transform="translate(103.08 -111.97) rotate(23.83)"/>
  <rect class="cls-2" x="315.67" y="99.4" width="55.97" height="56.31" rx="5" ry="5" transform="translate(80.84 -127.98) rotate(23.83)"/>
  <rect class="cls-2" x="344.09" y="35.05" width="55.97" height="56.31" rx="5" ry="5" transform="translate(57.27 -144.95) rotate(23.83)"/>
  <text class="cls-5" transform="translate(285.38 271.7)"><tspan x="0" y="0">도솔</tspan><tspan x="-6.44" y="16.8">하우스</tspan></text>
  <text class="cls-5" transform="translate(296.88 192.5)"><tspan x="0" y="0">농구장</tspan></text>
  <text class="cls-5" transform="translate(318.4 131.54)"><tspan x="0" y="0">테니스장</tspan></text>
  <text class="cls-5" transform="translate(356.54 58.05)"><tspan x="0" y="0">해양</tspan><tspan x="-12.88" y="16.8">플랜트동</tspan></text>
  <g>
    <path class="cls-2" d="m691.05,496.98h-2.14v3.62h-2.09v-10.08h4.39c1.01,0,1.82.26,2.42.78s.9,1.32.9,2.41c0,1.19-.3,2.03-.9,2.52s-1.46.74-2.58.74Zm.98-2.1c.27-.24.41-.62.41-1.15s-.14-.9-.41-1.12c-.28-.22-.66-.33-1.16-.33h-1.96v2.97h1.96c.5,0,.88-.12,1.16-.36Z"/>
    <circle class="cls-6" cx="690.22" cy="495.57" r="8.17"/>
  </g>
  <g>
    <path class="cls-2" d="m573.58,274.08h-2.14v3.62h-2.09v-10.08h4.39c1.01,0,1.82.26,2.42.78s.9,1.32.9,2.41c0,1.19-.3,2.03-.9,2.52s-1.46.74-2.58.74Zm.98-2.1c.27-.24.41-.62.41-1.15s-.14-.9-.41-1.12c-.28-.22-.66-.33-1.16-.33h-1.96v2.97h1.96c.5,0,.88-.12,1.16-.36Z"/>
    <circle class="cls-6" cx="572.75" cy="272.67" r="8.17"/>
  </g>
  <g>
    <path class="cls-2" d="m422.84,217.31h-2.14v3.62h-2.09v-10.08h4.39c1.01,0,1.82.26,2.42.78s.9,1.32.9,2.41c0,1.19-.3,2.03-.9,2.52s-1.46.74-2.58.74Zm.98-2.1c.27-.24.41-.62.41-1.15s-.14-.9-.41-1.12c-.28-.22-.66-.33-1.16-.33h-1.96v2.97h1.96c.5,0,.88-.12,1.16-.36Z"/>
    <circle class="cls-6" cx="422.02" cy="215.89" r="8.17"/>
  </g>
  <g>
    <path class="cls-2" d="m366.23,317.14h-2.14v3.62h-2.09v-10.08h4.39c1.01,0,1.82.26,2.42.78s.9,1.32.9,2.41c0,1.19-.3,2.03-.9,2.52s-1.46.74-2.58.74Zm.98-2.1c.27-.24.41-.62.41-1.15s-.14-.9-.41-1.12c-.28-.22-.66-.33-1.16-.33h-1.96v2.97h1.96c.5,0,.88-.12,1.16-.36Z"/>
    <circle class="cls-6" cx="365.4" cy="315.72" r="8.17"/>
  </g>
  <g>
    <path class="cls-2" d="m228.58,493.69h-2.14v3.62h-2.09v-10.08h4.39c1.01,0,1.82.26,2.42.78s.9,1.32.9,2.41c0,1.19-.3,2.03-.9,2.52s-1.46.74-2.58.74Zm.98-2.1c.27-.24.41-.62.41-1.15s-.14-.9-.41-1.12c-.28-.22-.66-.33-1.16-.33h-1.96v2.97h1.96c.5,0,.88-.12,1.16-.36Z"/>
    <circle class="cls-6" cx="227.76" cy="492.28" r="8.17"/>
  </g>
  <g>
    <path class="cls-2" d="m176.6,552.61h-2.14v3.62h-2.09v-10.08h4.39c1.01,0,1.82.26,2.42.78s.9,1.32.9,2.41c0,1.19-.3,2.03-.9,2.52s-1.46.74-2.58.74Zm.98-2.1c.27-.24.41-.62.41-1.15s-.14-.9-.41-1.12c-.28-.22-.66-.33-1.16-.33h-1.96v2.97h1.96c.5,0,.88-.12,1.16-.36Z"/>
    <circle class="cls-6" cx="175.77" cy="551.2" r="8.17"/>
  </g>
  <g>
    <path class="cls-2" d="m657.45,674.25h-2.14v3.62h-2.09v-10.08h4.39c1.01,0,1.82.26,2.42.78s.9,1.32.9,2.41c0,1.19-.3,2.03-.9,2.52s-1.46.74-2.58.74Zm.98-2.1c.27-.24.41-.62.41-1.15s-.14-.9-.41-1.12c-.28-.22-.66-.33-1.16-.33h-1.96v2.97h1.96c.5,0,.88-.12,1.16-.36Z"/>
    <circle class="cls-6" cx="656.62" cy="672.83" r="8.17"/>
  </g>
  <g>
    <path class="cls-2" d="m522.87,735.56h-2.14v3.62h-2.09v-10.08h4.39c1.01,0,1.82.26,2.42.78s.9,1.32.9,2.41c0,1.19-.3,2.03-.9,2.52s-1.46.74-2.58.74Zm.98-2.1c.27-.24.41-.62.41-1.15s-.14-.9-.41-1.12c-.28-.22-.66-.33-1.16-.33h-1.96v2.97h1.96c.5,0,.88-.12,1.16-.36Z"/>
    <circle class="cls-6" cx="522.04" cy="734.15" r="8.17"/>
  </g>
  <g>
    <path class="cls-2" d="m785.49,380.38h-2.14v3.62h-2.09v-10.08h4.39c1.01,0,1.82.26,2.42.78s.9,1.32.9,2.41c0,1.19-.3,2.03-.9,2.52s-1.46.74-2.58.74Zm.98-2.1c.27-.24.41-.62.41-1.15s-.14-.9-.41-1.12c-.28-.22-.66-.33-1.16-.33h-1.96v2.97h1.96c.5,0,.88-.12,1.16-.36Z"/>
    <circle class="cls-6" cx="784.66" cy="378.97" r="8.17"/>
  </g>
</svg>