<?xml version="1.0" encoding="UTF-8"?><svg id="Layer_2" xmlns="http://www.w3.org/2000/svg" viewBox="0 0 824.74 69.65"><defs><style>.cls-1{fill:#3e67ff;opacity:.77;stroke-width:0px;}</style></defs><g id="_레이어_1"><path class="cls-1" d="m46.62.23H0v68.55h34.33v-24.84h12.29c12.17,0,22.04-9.78,22.04-21.86h0C68.66,10.01,58.79.23,46.62.23Z"/><polygon class="cls-1" points="215.25 .17 215.25 68.66 249.49 68.66 283.72 68.66 283.72 44.75 249.49 44.75 249.49 24.08 283.72 24.08 283.72 .17 249.49 .17 215.25 .17"/><polygon class="cls-1" points="143.37 .23 143.37 68.72 177.8 68.72 212.23 68.72 212.23 44.81 177.8 44.81 177.8 42.36 212.23 42.36 212.23 26.59 177.8 26.59 177.8 24.14 212.23 24.14 212.23 .23 177.8 .23 143.37 .23"/><polygon class="cls-1" points="354.96 24.14 354.96 .23 321.05 .23 287.14 .23 287.14 68.72 321.05 68.72 354.96 68.72 354.96 44.81 321.05 44.81 321.05 42.36 354.96 42.36 354.96 26.59 321.05 26.59 321.05 24.14 354.96 24.14"/><polygon class="cls-1" points="123.3 68.95 140.57 68.95 140.57 44.81 123.3 44.81 123.3 23.99 140.57 23.99 140.57 0 71.48 0 71.48 23.99 88.75 23.99 88.75 44.81 71.48 44.81 71.48 68.95 88.75 68.95 123.3 68.95"/><polygon class="cls-1" points="454.8 .89 454.8 68.8 488.75 68.8 488.75 42.66 522.7 42.66 522.7 27.02 488.75 27.02 488.75 24.6 522.7 24.6 522.7 .89 488.75 .89 454.8 .89"/><path class="cls-1" d="m448.91,49.63l-31.29-14.44,33.76-6.95c-3.21-15.7-17.11-27.51-33.76-27.51h0c-19.03,0-34.46,15.43-34.46,34.46h0c0,19.03,15.43,34.46,34.46,34.46h0c13.87,0,25.82-8.2,31.28-20.02Z"/><polygon class="cls-1" points="631.22 .39 614.74 68.82 638.64 68.82 643.59 48.29 654.2 48.29 659.14 68.82 683.04 68.82 666.57 .39 631.22 .39"/><polygon class="cls-1" points="544.15 .39 544.15 68.82 578.11 68.82 612.06 68.82 612.06 44.93 578.11 44.93 578.11 24.28 612.06 24.28 612.06 .39 578.11 .39 544.15 .39"/><polygon class="cls-1" points="757.61 .39 757.61 68.82 791.18 68.82 824.74 68.82 824.74 44.93 791.18 44.93 791.18 42.49 824.74 42.49 824.74 26.73 791.18 26.73 791.18 24.28 824.74 24.28 824.74 .39 791.18 .39 757.61 .39"/><polygon class="cls-1" points="720.25 .39 685.72 .39 685.72 68.82 720.25 68.82 754.79 68.82 720.25 34.61 754.79 .39 720.25 .39"/></g></svg>